<svg xmlns="http://www.w3.org/2000/svg" width="41.932" height="47.556" viewBox="0 0 41.932 47.556"><g transform="translate(-8.76 -1.352)"><path d="M12.576,44.154,8.76,1.352H50.692l-3.82,42.8L29.7,48.908,12.576,44.154Z" fill="#1572b6"/><path d="M64,50.99l13.876-3.847,3.264-36.571H64Z" transform="translate(-34.274 -5.721)" fill="#33a9dc"/><path d="M64,34.06h6.946l.48-5.376H64v-5.25H77.164l-.126,1.408L75.748,39.31H64V34.06Z" transform="translate(-34.274 -13.701)" fill="#fff"/><path d="M45.264,77.935l-.023.007-5.846-1.579-.374-4.187H33.752l.735,8.243L45.24,83.4l.024-.007Z" transform="translate(-15.506 -43.944)" fill="#ebebeb"/><path d="M70.522,64.675,69.89,71.7l-5.855,1.58v5.462L74.8,75.765l.079-.887.913-10.2Z" transform="translate(-34.296 -39.289)" fill="#fff"/><path d="M42.552,23.435v5.25H29.872l-.105-1.18-.239-2.661L29.4,23.435h13.15Zm-.018,10.626v5.25H36.761l-.105-1.18-.239-2.661-.125-1.408Z" transform="translate(-12.807 -13.701)" fill="#ebebeb"/></g></svg>