<svg xmlns="http://www.w3.org/2000/svg" width="71.267" height="41.365" viewBox="0 0 71.267 41.365"><path d="M100.376,68.615c-2.592.659-4.2.028-5.633-2.132C91.514,61.646,87.95,57.03,84.51,52.329c-.443-.608-.9-1.205-1.478-1.961-4.07,5.491-8.135,10.721-11.949,16.161-1.364,1.944-2.8,2.791-5.343,2.1l15.3-20.538L66.8,29.545c2.45-.478,4.144-.233,5.645,1.961,3.314,4.843,6.969,9.453,10.613,14.331,3.667-4.86,7.276-9.476,10.687-14.274,1.37-1.944,2.842-2.683,5.3-1.967-1.865,2.473-3.689,4.906-5.525,7.322-2.478,3.257-4.911,6.554-7.481,9.743-.915,1.137-.767,1.876.051,2.95C90.843,55.859,95.538,62.169,100.376,68.615Z" transform="translate(-29.109 -28.346)" fill="#333"/><path d="M1.317,47.008c.409-2.052.682-4.144,1.251-6.156,3.411-12.182,17.395-17.247,27-9.7,5.628,4.428,7.026,10.67,6.748,17.707H4.6c-.478,12.625,8.612,20.248,20.2,16.36,4.064-1.364,6.458-4.548,7.657-8.527.608-2,1.614-2.308,3.49-1.739C34.981,59.934,32.8,64.1,28.256,66.7c-6.821,3.9-16.559,2.638-21.681-2.78C3.551,60.736,2.266,56.774,1.7,52.493c-.085-.682-.261-1.353-.4-2.029Q1.317,48.736,1.317,47.008Zm3.337-.847H33.321c-.188-9.129-5.872-15.616-13.643-15.672C11.151,30.42,5.023,36.753,4.654,46.161Z" transform="translate(-1.3 -27.601)" fill="#333"/></svg>