<svg xmlns="http://www.w3.org/2000/svg" width="46.413" height="46.413" viewBox="0 0 46.413 46.413"><path d="M46.42,22.023,26.156,1.759a2.99,2.99,0,0,0-4.227,0L17.721,5.967,23.059,11.3a3.55,3.55,0,0,1,4.5,4.525L32.7,20.975a3.552,3.552,0,1,1-2.13,2l-4.8-4.8V30.808a3.55,3.55,0,1,1-2.924-.1V17.962a3.559,3.559,0,0,1-1.93-4.665L15.653,8.035,1.758,21.929a2.99,2.99,0,0,0,0,4.228L22.023,46.421a2.99,2.99,0,0,0,4.228,0l20.17-20.17a2.991,2.991,0,0,0,0-4.229Z" transform="translate(-0.883 -0.883)" fill="#f34f29"/></svg>