<svg xmlns="http://www.w3.org/2000/svg" width="58.223" height="66.031" viewBox="0 0 58.223 66.031"><g transform="translate(0)"><path d="M14.331,61.091l-5.3-59.43H67.255l-5.3,59.421-23.843,6.61Z" transform="translate(-9.032 -1.661)" fill="#333"/><path d="M64,66.956l19.266-5.342L87.8,10.836H64Z" transform="translate(-34.888 -5.977)" fill="#8685ef"/><path d="M58.053,39.352H38.121l-.666-7.464H47.766V24.6H29.489l.175,1.955,1.791,20.087h26.6ZM47.766,58.282l-.032.009L39.617,56.1,39.1,50.286H31.781L32.8,61.73l14.931,4.145.033-.009,7.341-7.575" transform="translate(-18.655 -12.451)" fill="#fff"/><path d="M51.728,39.352,58.2,46.641h8.975l-.846,9.453L58.2,58.288v7.583L73.145,61.73l.11-1.231,1.713-19.189.177-1.957H51.728ZM58.2,24.6l-6.474,7.289h24.08l.146-1.638.333-3.7.174-1.955Z" transform="translate(-29.116 -12.451)" fill="#fff"/></g></svg>