<svg xmlns="http://www.w3.org/2000/svg" width="66.299" height="66.299" viewBox="0 0 66.299 66.299"><path d="M1.408,1.408h66.3v66.3H1.408Z" transform="translate(-1.408 -1.408)" fill="#333"/><path d="M77.758,78.608c-.486-3.025-2.458-5.565-8.3-7.934-2.029-.933-4.292-1.6-4.966-3.138a3.422,3.422,0,0,1-.12-1.941c.435-1.758,2.534-2.306,4.2-1.8a4.618,4.618,0,0,1,2.7,2.5c2.861-1.853,2.855-1.84,4.853-3.114a12.4,12.4,0,0,0-1.6-2.142C72.8,59.117,70.453,58.127,66.7,58.2l-1.953.253a8.863,8.863,0,0,0-4.7,2.773,8.68,8.68,0,0,0,1.576,12.358c3.762,2.824,9.289,3.466,10,6.107.687,3.233-2.376,4.279-5.42,3.907-2.243-.467-3.491-1.607-4.84-3.68-2.483,1.437-2.483,1.437-5.036,2.9a11.205,11.205,0,0,0,2.256,3.069c4.8,4.871,16.82,4.632,18.976-2.741a9.119,9.119,0,0,0,.2-4.545ZM52.927,58.593h-6.2L46.7,74.625c0,3.41.176,6.535-.378,7.493-.907,1.884-3.258,1.651-4.33,1.285a5.321,5.321,0,0,1-2.287-2.375,3.123,3.123,0,0,0-.353-.567L34.31,83.549a9.963,9.963,0,0,0,3.655,4.184,12.036,12.036,0,0,0,8.861,1.09,7.825,7.825,0,0,0,5-3.92c1.412-2.6,1.109-5.754,1.1-9.239C52.958,69.98,52.927,64.3,52.927,58.593Z" transform="translate(-16.885 -28.122)" fill="#fff"/></svg>