<svg xmlns="http://www.w3.org/2000/svg" width="120.825" height="62.751" viewBox="0 0 120.825 62.751"><g transform="translate(-2 -31.799)"><path d="M2,89.963H6V74.155l6.2,13.781c.731,1.668,1.732,2.258,3.695,2.258s2.926-.59,3.657-2.258l6.2-13.781V89.963h4V74.182a2.4,2.4,0,0,0-1.886-2.669c-3.041-.949-5.082-.128-6.005,1.925l-6.081,13.6-5.888-13.6c-.886-2.052-2.964-2.873-6.005-1.925A2.4,2.4,0,0,0,2,74.181V89.963ZM33.082,77.1h4V85.8c-.037.473.152,1.583,2.344,1.618,1.119.018,8.635,0,8.705,0V77.052h4.012c.019,0,0,14.142,0,14.2.021,3.488-4.327,4.245-6.333,4.3H33.169V92.864c.021,0,12.631,0,12.662,0,2.577-.272,2.272-1.552,2.271-1.983v-1.05H39.6c-3.958-.036-6.48-1.764-6.512-3.751,0-.182.087-8.9,0-8.983Z" transform="translate(0 -1.007)" fill="#8685ef"/><path d="M56.63,89.973H68.14a8.886,8.886,0,0,0,3.7-.769c1.732-.8,2.578-1.873,2.578-3.286V82.993c0-1.155-.962-2.233-2.848-2.95a9.83,9.83,0,0,0-3.427-.59H63.288c-1.617,0-2.386-.487-2.578-1.565a1.16,1.16,0,0,1-.038-.36V75.706a1.077,1.077,0,0,1,.038-.333c.192-.821.616-1.052,2.04-1.181l.385-.025H74.568V71.5H63.328a10.791,10.791,0,0,0-3.233.333c-2.386.744-3.427,1.924-3.427,3.978v2.335c0,1.8,2.041,3.336,5.466,3.7.386.024.77.052,1.155.052h4.158a2.263,2.263,0,0,1,.424.024c1.271.1,1.808.334,2.194.8a.954.954,0,0,1,.307.718v2.336a1.337,1.337,0,0,1-.577.949,2.838,2.838,0,0,1-1.694.565l-.424.025H56.63v2.668Zm42.758-4.644c0,2.745,2.04,4.284,6.158,4.593.385.025.77.051,1.155.051h10.432V87.3H106.625c-2.348,0-3.233-.59-3.233-2V71.5h-4V85.329Zm-22.419.138V75.952c0-2.417,1.7-3.883,5.053-4.346a7.6,7.6,0,0,1,1.08-.077h7.6a8.119,8.119,0,0,1,1.118.077c3.356.463,5.054,1.928,5.054,4.346v9.515a3.474,3.474,0,0,1-2.382,3.695l3.944,3.559H93.786l-3.19-2.88-3.212.2H83.1a8.842,8.842,0,0,1-2.352-.334c-2.546-.694-3.781-2.032-3.781-4.244Zm4.321-.231a1.742,1.742,0,0,0,.077.412c.231,1.106,1.274,1.723,2.854,1.723h3.636l-3.34-3.016h4.649l2.912,2.631A1.9,1.9,0,0,0,93.092,85.7a1.332,1.332,0,0,0,.038-.386V76.186a1.252,1.252,0,0,0-.038-.361c-.232-1.029-1.274-1.619-2.816-1.619H84.219c-1.773,0-2.931.772-2.931,1.98v9.05Z" transform="translate(-1.398 -1.016)" fill="#333"/><path d="M121.245,66.052a14.089,14.089,0,0,0-5.948.839c-.457.193-1.185.2-1.259.77.25.264.289.657.489.98a7.717,7.717,0,0,0,1.61,1.888c.63.476,1.281.987,1.96,1.4,1.2.735,2.548,1.154,3.709,1.888.683.435,1.361.98,2.029,1.47.33.241.551.618.98.769v-.069c-.225-.286-.284-.68-.49-.98l-.91-.91a14.9,14.9,0,0,0-3.219-3.078c-.957-.687-3.1-1.616-3.5-2.729l-.07-.069a15.471,15.471,0,0,0,2.1-.49c1.052-.283,1.993-.209,3.079-.49l1.469-.421v-.279c-.549-.563-.941-1.31-1.54-1.819a45.043,45.043,0,0,0-5.038-3.78c-.976-.616-2.184-1.016-3.219-1.539-.347-.176-.959-.267-1.19-.56a14.75,14.75,0,0,1-1.26-2.379c-.877-1.691-1.74-3.538-2.519-5.318a28.558,28.558,0,0,0-1.539-3.5,30.9,30.9,0,0,0-11.9-11.476,14.246,14.246,0,0,0-3.918-1.259l-2.309-.14a12.354,12.354,0,0,1-1.4-1.049c-1.756-1.109-6.258-3.521-7.557-.349-.82,2,1.228,3.954,1.96,4.968a15.057,15.057,0,0,1,1.54,2.308c.242.526.283,1.053.49,1.61a36.85,36.85,0,0,0,1.609,4.128,14.607,14.607,0,0,0,1.12,1.889c.257.351.7.507.769,1.049a8.558,8.558,0,0,0-.7,2.308c-1.093,3.448-.681,7.735.91,10.287.488.784,1.638,2.464,3.218,1.819,1.383-.563,1.075-2.308,1.47-3.849.09-.348.034-.605.209-.839v.07l1.26,2.519a17.146,17.146,0,0,0,3.988,4.129c.727.549,1.3,1.5,2.239,1.819v-.071H99.9c-.183-.284-.467-.4-.7-.629a15.9,15.9,0,0,1-1.609-1.819,42.547,42.547,0,0,1-3.429-5.6c-.49-.941-.916-1.98-1.329-2.939-.16-.369-.158-.929-.489-1.119a13.9,13.9,0,0,0-1.47,2.1,18,18,0,0,0-.839,4.618l-.14.069c-.975-.235-1.317-1.238-1.68-2.1a13.222,13.222,0,0,1-.28-8.186c.209-.649,1.151-2.69.769-3.29-.182-.6-.783-.942-1.119-1.4a10.935,10.935,0,0,1-1.12-1.96c-.75-1.7-1.1-3.6-1.888-5.317a15.547,15.547,0,0,0-1.54-2.379,14,14,0,0,1-1.68-2.379c-.16-.347-.377-.9-.14-1.26a.557.557,0,0,1,.421-.42c.405-.313,1.536.1,1.959.28a17.124,17.124,0,0,1,3.01,1.54c.456.3.917.888,1.469,1.049h.629c.985.226,2.089.069,3.009.349a18.193,18.193,0,0,1,4.408,2.1,27.3,27.3,0,0,1,9.586,10.5c.362.7.52,1.36.839,2.1.645,1.489,1.458,3.022,2.1,4.478a20.9,20.9,0,0,0,2.17,4.129c.476.635,2.313.976,3.148,1.329a18.691,18.691,0,0,1,2.1.839c1.059.639,2.086,1.4,3.079,2.1.5.353,2.023,1.12,2.1,1.752ZM89.967,39.393a4.993,4.993,0,0,0-1.26.14V39.6h.07a9.466,9.466,0,0,0,.979,1.26l.7,1.469.069-.069a1.707,1.707,0,0,0,.629-1.54c-.174-.183-.2-.412-.35-.629-.2-.292-.587-.456-.839-.7Z" transform="translate(-1.989 0)" fill="#8685ef"/></g></svg>