<svg xmlns="http://www.w3.org/2000/svg" width="54.88" height="62.019" viewBox="0 0 54.88 62.019"><path d="M62.711,17.283,40.094,4.15a4.877,4.877,0,0,0-4.721,0L12.514,17.283A4.914,4.914,0,0,0,10,21.424V47.654A4.955,4.955,0,0,0,12.541,51.8l6.039,3.43c2.887,1.422,3.907,1.422,5.22,1.422,4.274,0,6.715-2.584,6.715-7.092v-25.9c0-.366-.19-.91-.549-.91H27.083c-.365,0-1.183.544-1.183.909v25.9c0,2-1.807,3.987-5.185,2.3l-6.24-3.6a.708.708,0,0,1-.371-.606V21.424c0-.247.285-.5.5-.622L37.392,7.691a.8.8,0,0,1,.738,0L60.637,20.8c.215.13.14.37.14.625V47.654c0,.25.094.494-.119.614L38.046,61.387a.642.642,0,0,1-.647,0l-5.8-3.462a.559.559,0,0,0-.55-.044,15.094,15.094,0,0,1-3.425,1.561c-.372.13-.922.355.21.989l7.59,4.49a4.783,4.783,0,0,0,4.777,0L62.71,51.8a4.621,4.621,0,0,0,2.17-4.146V21.424a4.606,4.606,0,0,0-2.169-4.141ZM44.831,43.5c-6.014,0-7.339-1.659-7.781-4.65-.051-.322-.325-.707-.652-.707H33.458c-.364,0-.656.441-.656.8,0,3.829,2.082,8.469,12.029,8.469,7.2,0,11.329-2.8,11.329-7.749,0-4.909-3.317-6.2-10.3-7.122-7.058-.933-7.776-1.4-7.776-3.058,0-1.363.607-3.181,5.834-3.181,4.67,0,6.391,1,7.1,4.15a.647.647,0,0,0,.636.508h2.951a.675.675,0,0,0,.482-.2.664.664,0,0,0,.172-.5c-.457-5.42-4.058-7.946-11.341-7.946-6.478,0-10.343,2.736-10.343,7.322,0,4.974,3.845,6.349,10.064,6.964,7.44.729,8.018,1.817,8.018,3.28,0,2.541-2.04,3.624-6.826,3.624Z" transform="translate(-10 -3.541)" fill="#333"/></svg>