<svg xmlns="http://www.w3.org/2000/svg" width="71.675" height="64.004" viewBox="0 0 71.675 64.004"><g transform="translate(-30)"><ellipse cx="6.526" cy="6.526" rx="6.526" ry="6.526" transform="translate(59.311 25.476)" fill="#333"/><path d="M62.026,29.339c-1.259-.458-2.576-.916-3.95-1.317.343-1.374.63-2.748.859-4.065,1.2-7.557-.114-12.881-3.778-14.942A7.112,7.112,0,0,0,51.493,8.1c-4.007,0-9.1,2.977-14.255,7.958C32.085,11.077,26.99,8.1,22.983,8.1a7.112,7.112,0,0,0-3.664.916c-3.664,2.118-4.981,7.442-3.778,14.942.229,1.317.515,2.691.859,4.065a39.925,39.925,0,0,0-3.95,1.317C5.293,32.087,1.4,35.866,1.4,40.1s3.95,8.015,11.049,10.763c1.259.458,2.576.916,3.95,1.317-.343,1.374-.63,2.748-.859,4.065-1.2,7.557.114,12.881,3.778,14.942a7.112,7.112,0,0,0,3.664.916c4.065,0,9.16-2.977,14.255-7.958C42.39,69.127,47.485,72.1,51.493,72.1a7.112,7.112,0,0,0,3.664-.916c3.664-2.118,4.981-7.442,3.778-14.942-.229-1.317-.515-2.691-.859-4.065a39.924,39.924,0,0,0,3.95-1.317c7.156-2.748,11.049-6.526,11.049-10.763S69.183,32.087,62.026,29.339ZM53.554,11.878C55.9,13.252,56.7,17.489,55.729,23.5a34.474,34.474,0,0,1-.8,3.778,68.014,68.014,0,0,0-9.446-1.431A82.6,82.6,0,0,0,39.528,18.4c4.236-4.179,8.53-7.042,12.022-7.042a3.868,3.868,0,0,1,2,.515ZM47.142,45.827c-1.03,1.832-2.233,3.664-3.492,5.5-2.118.172-4.236.229-6.412.229-2.233,0-4.351-.057-6.412-.229q-1.889-2.748-3.435-5.5c-1.088-1.889-2.118-3.836-3.034-5.725.916-1.889,1.946-3.836,3.034-5.725,1.03-1.832,2.233-3.664,3.492-5.5,2.118-.172,4.236-.229,6.412-.229,2.233,0,4.351.057,6.412.229q1.889,2.748,3.435,5.5c1.088,1.889,2.118,3.836,3.034,5.725C49.2,41.991,48.229,43.88,47.142,45.827Zm4.752-1.889c.859,2,1.546,3.95,2.175,5.9-1.946.458-4.007.8-6.183,1.088.687-1.088,1.431-2.233,2.061-3.435.687-1.2,1.317-2.4,1.946-3.549ZM37.238,59.452c-1.374-1.488-2.691-3.091-3.95-4.752,1.317.057,2.633.114,3.95.114s2.633-.057,3.95-.114C39.928,56.361,38.612,57.964,37.238,59.452ZM26.589,50.865c-2.175-.286-4.236-.63-6.183-1.088.63-1.889,1.317-3.893,2.175-5.9.63,1.145,1.259,2.347,1.946,3.492.687,1.259,1.374,2.347,2.061,3.492Zm-4.007-14.6c-.859-2-1.546-3.95-2.175-5.9,1.946-.458,4.007-.8,6.183-1.088-.687,1.088-1.431,2.233-2.061,3.435C23.842,33.919,23.212,35.121,22.582,36.266ZM37.238,20.752c1.374,1.488,2.691,3.091,3.95,4.752-1.317-.057-2.633-.114-3.95-.114s-2.633.057-3.95.114c1.259-1.66,2.576-3.263,3.95-4.752ZM49.947,32.774l-2.061-3.435c2.175.286,4.236.63,6.183,1.088-.63,1.889-1.317,3.893-2.175,5.9C51.264,35.121,50.634,33.919,49.947,32.774ZM18.746,23.5c-.973-6.011-.172-10.248,2.175-11.621a3.868,3.868,0,0,1,2-.515c3.435,0,7.729,2.805,12.022,7.042a75.255,75.255,0,0,0-5.954,7.442,77.834,77.834,0,0,0-9.446,1.431c-.343-1.317-.572-2.576-.8-3.778ZM4.606,40.1c0-2.691,3.263-5.553,8.988-7.671a34.324,34.324,0,0,1,3.664-1.2,83.444,83.444,0,0,0,3.435,8.931,72.139,72.139,0,0,0-3.435,8.874c-7.9-2.29-12.652-5.725-12.652-8.931ZM20.922,68.326c-2.347-1.374-3.149-5.61-2.175-11.621a34.473,34.473,0,0,1,.8-3.778,68.014,68.014,0,0,0,9.446,1.431A82.6,82.6,0,0,0,34.948,61.8c-4.236,4.179-8.53,7.042-12.022,7.042a3.868,3.868,0,0,1-2-.515ZM55.729,56.7c.973,6.011.172,10.248-2.175,11.621a3.868,3.868,0,0,1-2,.515c-3.435,0-7.729-2.805-12.022-7.042a75.256,75.256,0,0,0,5.954-7.442,77.833,77.833,0,0,0,9.446-1.431C55.271,54.242,55.5,55.5,55.729,56.7Zm5.152-8.931a34.323,34.323,0,0,1-3.664,1.2,83.445,83.445,0,0,0-3.435-8.931,72.139,72.139,0,0,0,3.435-8.874c7.9,2.29,12.652,5.725,12.652,8.931C69.87,42.793,66.549,45.655,60.881,47.773Z" transform="translate(28.6 -8.1)" fill="#333"/></g></svg>