<svg xmlns="http://www.w3.org/2000/svg" width="62.397" height="46.667" viewBox="0 0 62.397 46.667"><path d="M1.219,36.459a2.752,2.752,0,0,0,.161.8,9.882,9.882,0,0,0,2.141,3.85,25.38,25.38,0,0,0,4.748,4.166c1.485,1.068,3,2.111,4.491,3.171.256.182.5.391.776.614-.239.129-.438.243-.645.348a34.5,34.5,0,0,0-5.605,3.472A11.465,11.465,0,0,0,4.5,55.7a6.066,6.066,0,0,0-.7,5.845,3.45,3.45,0,0,0,1.176,1.517,1.739,1.739,0,0,0,.577.3c.526.124,1.062.2,1.594.3H8.651A9.378,9.378,0,0,0,13.206,62a10,10,0,0,0,4.207-6.007,10.6,10.6,0,0,0-.062-5.543c-.049-.171-.111-.338-.176-.5s-.141-.327-.23-.533l3.417-1.965.051.044c-.062.2-.128.406-.184.611a13.84,13.84,0,0,0-.579,4.531,8.7,8.7,0,0,0,1.521,4.545,2.2,2.2,0,0,0,3.451.037,7.959,7.959,0,0,0,.79-1.249c.557-1.15,1.073-2.321,1.605-3.484l.093-.213c-.038.551-.083,1.034-.1,1.518a5.787,5.787,0,0,0,.271,2.226,1.538,1.538,0,0,0,1.3,1.156,1.637,1.637,0,0,0,1.221-.445,5.161,5.161,0,0,0,1.337-1.59c.945-1.735,1.915-3.459,2.771-5.238.926-1.924,1.736-3.9,2.6-5.86l.142-.347c.2.8.345,1.581.606,2.321a21.94,21.94,0,0,0,1.087,2.514.752.752,0,0,1-.1.958c-1.121,1.352-2.223,2.72-3.326,4.087a9.181,9.181,0,0,0-.69.938,1.839,1.839,0,0,0-.239.678.863.863,0,0,0,.687.98,4.8,4.8,0,0,0,1.346.1,7.883,7.883,0,0,0,4.172-1.569,4.374,4.374,0,0,0,1.727-4.722,10.97,10.97,0,0,0-.471-1.528.564.564,0,0,1,.061-.6A48.629,48.629,0,0,0,44.9,42.1a1.185,1.185,0,0,1,.152-.24,14.93,14.93,0,0,0,1.714,4.866c-.453.437-.9.833-1.308,1.269a8.75,8.75,0,0,0-2.074,3.278,3.872,3.872,0,0,0-.23,1.692,1.426,1.426,0,0,0,1.761,1.294,8,8,0,0,0,4.777-2.945,3.872,3.872,0,0,0,.547-3.535c-.093-.342-.2-.678-.324-1.07.473-.147.933-.323,1.41-.431a12.5,12.5,0,0,1,7.307.427,5.514,5.514,0,0,1,3.184,2.769A3.194,3.194,0,0,1,60.6,53.808a2.715,2.715,0,0,0-.439.3.432.432,0,0,0-.1.333c.01.061.172.138.265.137a2.423,2.423,0,0,0,1.347-.557,4.149,4.149,0,0,0,1.915-2.891l.031-.093-.038-.81c-.015-.047.011-.093.008-.128a6.352,6.352,0,0,0-2.591-4.318A9.45,9.45,0,0,0,55.4,43.9a12.624,12.624,0,0,0-4.853.747c-.446.162-.888.353-1.336.533-.06-.109-.125-.213-.178-.321A9.083,9.083,0,0,1,47.9,41.935a6.544,6.544,0,0,1-.012-2.293c.175-.73.4-1.448.619-2.168a.528.528,0,0,0-.321-.745,1.418,1.418,0,0,0-.391-.128,6.016,6.016,0,0,0-2.57.191.736.736,0,0,0-.581.584c-.038.189-.115.371-.168.558a13.946,13.946,0,0,1-.732,2.308c-.892,1.856-1.909,3.642-2.951,5.416-.113.191-.232.379-.374.611a8.011,8.011,0,0,1-.874-2.257,6.928,6.928,0,0,1-.012-2.723c.168-.674.389-1.335.591-2a.463.463,0,0,0-.235-.649,1.379,1.379,0,0,0-.471-.183,5.786,5.786,0,0,0-2.661.218.719.719,0,0,0-.494.54,20.833,20.833,0,0,1-.79,2.443c-1.379,3.161-2.8,6.305-4.214,9.449-.3.656-.642,1.29-.976,1.929a4.479,4.479,0,0,1-.313.457.373.373,0,0,1-.117-.237,6.544,6.544,0,0,1,.031-1.211c.233-1.182.5-2.357.784-3.528.234-.967.505-1.925.764-2.886a.906.906,0,0,0-.143-.893,1.335,1.335,0,0,0-1.68-.2l-.213.12.041-.343a5.342,5.342,0,0,0-.08-2.192,1.744,1.744,0,0,0-1.832-1.393,3.935,3.935,0,0,0-1.3.247,9.82,9.82,0,0,0-4.118,3.264,1.288,1.288,0,0,1-.376.325c-1.438.8-2.88,1.584-4.322,2.375l-1.6.879c-.43-.41-.821-.836-1.265-1.2-1.355-1.105-2.732-2.183-4.1-3.276a16.148,16.148,0,0,1-3.278-3.26A5.836,5.836,0,0,1,6.027,36.9a7.459,7.459,0,0,1,1.14-4.156,15.942,15.942,0,0,1,3.782-4.138,35.041,35.041,0,0,1,4.974-3.3,37.518,37.518,0,0,1,7.627-3.366,21.082,21.082,0,0,1,8.431-.959,8.663,8.663,0,0,1,3.244.942,3.346,3.346,0,0,1,1.7,1.847,4.618,4.618,0,0,1,.081,2.586,9.873,9.873,0,0,1-2.582,4.5A17.448,17.448,0,0,1,27.3,35.377a19.62,19.62,0,0,1-4.853,1.035,9.139,9.139,0,0,1-3.968-.478,5.162,5.162,0,0,1-2.186-1.484c-.106-.124-.243-.259-.441-.143a.377.377,0,0,0-.164.487,4.766,4.766,0,0,0,.379.913,5.2,5.2,0,0,0,1.731,1.639,8.469,8.469,0,0,0,4.3,1.181,21.651,21.651,0,0,0,6.786-.865,16.647,16.647,0,0,0,8.142-4.912,12.507,12.507,0,0,0,3.439-7.166,6.936,6.936,0,0,0-.648-3.948A7.136,7.136,0,0,0,36.7,18.592,13.181,13.181,0,0,0,30.574,17H28.432a22.171,22.171,0,0,0-7.526,1.627,51.7,51.7,0,0,0-5.4,2.337A34.919,34.919,0,0,0,5.21,28.336a15.374,15.374,0,0,0-3.4,5.362c-.207.6-.4,1.242-.552,1.862M15.1,53.457a7.9,7.9,0,0,1-2.811,5.468A6.4,6.4,0,0,1,9.07,60.53a2.36,2.36,0,0,1-1.339-.093,1.366,1.366,0,0,1-.769-1.4,5.059,5.059,0,0,1,.756-2.577,9.213,9.213,0,0,1,2.356-2.587,36.109,36.109,0,0,1,4.606-3.1l.121-.05a8.084,8.084,0,0,1,.3,2.737Zm12.5-9.631a16.72,16.72,0,0,1-.47,2.1,61.959,61.959,0,0,1-2.625,6.944,11.979,11.979,0,0,1-.682,1.2.839.839,0,0,1-.141.166c-.287.284-.56.269-.7-.1a7.825,7.825,0,0,1-.362-1.35,7.153,7.153,0,0,1-.065-.943,11.816,11.816,0,0,1,1.857-6.153A5.752,5.752,0,0,1,26.2,43.678a3.116,3.116,0,0,1,.793-.351c.422-.119.682.077.612.5Zm8.53,10.868,3.066-3.58C39.324,52.444,37.064,55.1,36.13,54.694Zm9.792-2.409c-.217.124-.453.214-.675.329-.2.105-.27,0-.276-.176a1.185,1.185,0,0,1,.046-.358,7.707,7.707,0,0,1,2.309-3.72l.08-.041a3.284,3.284,0,0,1-1.484,3.967Z" transform="translate(-1.219 -17)" fill="#cb6699" fill-rule="evenodd"/></svg>