<svg xmlns="http://www.w3.org/2000/svg" width="66.201" height="66.201" viewBox="0 0 66.201 66.201"><rect width="52.786" height="39.016" transform="translate(11.212 24.145)" fill="#fff"/><path d="M1.5,34.511v33.1H67.7V1.41H1.5Zm53.348-2.648a8.241,8.241,0,0,1,4.142,2.383,10.9,10.9,0,0,1,1.589,2.118c0,.085-2.86,2.018-4.6,3.1-.064.042-.318-.233-.6-.651a3.755,3.755,0,0,0-3.109-1.87c-2.007-.138-3.3.916-3.289,2.648a2.426,2.426,0,0,0,.286,1.239c.44.916,1.26,1.462,3.834,2.574,4.74,2.039,6.768,3.384,8.029,5.3A9.612,9.612,0,0,1,61.9,56.77c-1.059,2.754-3.654,4.624-7.325,5.243a20.3,20.3,0,0,1-5.042-.053,12.181,12.181,0,0,1-6.737-3.511A11.638,11.638,0,0,1,41.073,55.9a4.946,4.946,0,0,1,.609-.387l2.452-1.356,1.9-1.1.4.588a8.887,8.887,0,0,0,2.51,2.4c2.118,1.112,5.01.959,6.44-.328a2.876,2.876,0,0,0,.365-3.665c-.53-.736-1.589-1.356-4.549-2.648-3.416-1.472-4.888-2.383-6.234-3.834a8.728,8.728,0,0,1-1.817-3.31,13.24,13.24,0,0,1-.117-4.237,8.052,8.052,0,0,1,6.79-6.286,16.767,16.767,0,0,1,5.026.138ZM39.309,34.638v2.712h-8.6V61.833h-6.1V37.344H16V34.7a26.054,26.054,0,0,1,.064-2.738c.042-.048,5.3-.048,11.651-.048H39.277Z" transform="translate(-1.5 -1.41)" fill="#333"/></svg>