<svg xmlns="http://www.w3.org/2000/svg" width="45" height="45" viewBox="0 0 45 45"><g transform="translate(-1.5 -1.41)"><rect width="35.881" height="26.521" transform="translate(9.121 17.822)" fill="#fff"/><path d="M1.5,23.91v22.5h45v-45H1.5Zm36.263-1.8a5.6,5.6,0,0,1,2.815,1.62,7.409,7.409,0,0,1,1.08,1.44c0,.058-1.944,1.372-3.128,2.106-.043.029-.216-.158-.407-.443a2.552,2.552,0,0,0-2.113-1.271c-1.364-.094-2.243.623-2.236,1.8a1.649,1.649,0,0,0,.194.842c.3.623.857.994,2.606,1.75,3.222,1.386,4.6,2.3,5.458,3.6a6.533,6.533,0,0,1,.522,5.486c-.72,1.872-2.484,3.143-4.979,3.564a13.8,13.8,0,0,1-3.427-.036,8.28,8.28,0,0,1-4.579-2.387,7.911,7.911,0,0,1-1.17-1.735,3.363,3.363,0,0,1,.414-.263l1.667-.922,1.292-.749.27.4a6.041,6.041,0,0,0,1.706,1.634,4.171,4.171,0,0,0,4.378-.223,1.955,1.955,0,0,0,.248-2.491c-.36-.5-1.08-.922-3.092-1.8a11.143,11.143,0,0,1-4.237-2.606,5.933,5.933,0,0,1-1.235-2.25,9,9,0,0,1-.079-2.88,5.474,5.474,0,0,1,4.615-4.273,11.4,11.4,0,0,1,3.416.094ZM27.2,24V25.84H21.358V42.482H17.214V25.836H11.357v-1.8a17.709,17.709,0,0,1,.043-1.861c.029-.032,3.6-.032,7.92-.032h7.859Z" transform="translate(0 0)" fill="#007acc"/></g></svg>