<svg xmlns="http://www.w3.org/2000/svg" width="66.299" height="64.641" viewBox="0 0 66.299 64.641"><path d="M54.558,64.641H11.74A11.731,11.731,0,0,1,0,52.9V11.74A11.731,11.731,0,0,1,11.74,0H54.558A11.731,11.731,0,0,1,66.3,11.74V52.9A11.731,11.731,0,0,1,54.558,64.641Z" fill="#8685ef"/><path d="M60.746,69.116H20.028A10.045,10.045,0,0,1,10,59.089V20.028A10.045,10.045,0,0,1,20.028,10H60.719A10.027,10.027,0,0,1,70.746,20.028V59.061A10.009,10.009,0,0,1,60.746,69.116Z" transform="translate(-7.238 -7.238)" fill="#333"/><path d="M58.644,71.43l7.735,14.862c.138.221.055.442-.166.442H61.407a.542.542,0,0,1-.58-.359c-1.768-3.646-3.564-7.293-5.414-11.216h-.055c-1.657,3.7-3.481,7.6-5.249,11.243a.53.53,0,0,1-.5.3H45.053c-.276,0-.3-.221-.166-.387L52.457,71.9l-7.32-14.586a.223.223,0,0,1,.166-.387h4.751a.435.435,0,0,1,.5.3c1.74,3.646,3.508,7.4,5.166,11.077h.055c1.6-3.646,3.37-7.431,5.083-11.05.138-.221.221-.359.5-.359H65.8c.221,0,.3.166.166.387Zm9.088,4.5c0-6.437,4.282-11.464,11.077-11.464a12.247,12.247,0,0,1,1.436.055V57.2a.277.277,0,0,1,.276-.276h4.365c.221,0,.276.083.276.221V82.508a19.678,19.678,0,0,0,.138,2.707c0,.166-.055.221-.221.3a16.455,16.455,0,0,1-7.072,1.6C72.015,87.149,67.733,83.447,67.733,75.933Zm12.514-7.072a4.178,4.178,0,0,0-1.6-.276c-3.481,0-5.912,2.68-5.912,7.127,0,5.083,2.486,7.127,5.608,7.127a5.212,5.212,0,0,0,1.906-.3Z" transform="translate(-32.429 -41.182)" fill="#fff"/></svg>