<svg xmlns="http://www.w3.org/2000/svg" width="18.466" height="18.622" viewBox="0 0 18.466 18.622"><g transform="translate(-2.381)"><g transform="translate(2.381)"><path d="M20.366,0H2.862a.481.481,0,0,0-.481.481v17.66a.481.481,0,0,0,.481.481H8.681v0a.429.429,0,0,0,.473-.4c.024-.647.007-1.295.007-1.92a13.325,13.325,0,0,1-1.358.056,2.222,2.222,0,0,1-2.114-1.428A2.727,2.727,0,0,0,4.57,13.553a1.131,1.131,0,0,1-.266-.24c-.1-.118-.082-.239.077-.271a1.33,1.33,0,0,1,.5-.026,2.081,2.081,0,0,1,1.384,1.028,2.1,2.1,0,0,0,2.786.868.274.274,0,0,0,.155-.149,2.413,2.413,0,0,1,.6-1.234c-.381-.071-.734-.123-1.081-.2a4.338,4.338,0,0,1-2.548-1.47,4.551,4.551,0,0,1-.891-2.3,4.315,4.315,0,0,1,.883-3.589.282.282,0,0,0,.05-.228,3.668,3.668,0,0,1,.032-2.2c.117-.383.15-.4.541-.349.024,0,.047.009.071.013a5.951,5.951,0,0,1,2.122.916.475.475,0,0,0,.323.065,9.941,9.941,0,0,1,4.757,0,.478.478,0,0,0,.3-.056c.361-.189.707-.408,1.073-.587A2.967,2.967,0,0,1,16.8,3.192a.321.321,0,0,1,.243.157A3.64,3.64,0,0,1,17.16,5.7a.436.436,0,0,0,.058.292,7.953,7.953,0,0,1,.692,1.25,5.261,5.261,0,0,1-.32,3.969,3.88,3.88,0,0,1-2.774,2.063c-.407.1-.825.166-1.264.252a2.772,2.772,0,0,1,.656,2.1c-.011.793-.008,1.586-.008,2.38,0,.384.168.6.46.609,0,0,6.187,0,6.187,0V.481A.481.481,0,0,0,20.366,0Z" transform="translate(-2.381 0)" fill="#333"/></g></g></svg>