<svg xmlns="http://www.w3.org/2000/svg" width="58.511" height="66.359" viewBox="0 0 58.511 66.359"><g transform="translate(0)"><path d="M14.085,61.077,8.76,1.352H67.271l-5.33,59.716L37.98,67.711l-23.9-6.634Z" transform="translate(-8.76 -1.352)" fill="#333"/><path d="M64,66.97,83.363,61.6l4.555-51.03H64Z" transform="translate(-34.745 -5.689)" fill="#8685ef"/><path d="M64,38.261h9.693l.669-7.5H64V23.435H82.369L82.193,25.4l-1.8,20.186H64V38.261Z" transform="translate(-34.745 -11.74)" fill="#fff"/><path d="M49.816,80.212l-.032.01-8.158-2.2L41.1,72.177H33.752l1.026,11.5,15,4.164.033-.01,3.9-7.612" transform="translate(-20.516 -34.667)" fill="#fff"/><path d="M73.087,64.675,72.2,74.484l-8.17,2.205v7.621l15.017-4.162.11-1.238,1.274-14.236H73.087Z" transform="translate(-34.761 -31.138)" fill="#fff"/><path d="M53.1,23.435,48.586,30.76H30.058l-.147-1.646L29.577,25.4,29.4,23.435H53.1ZM48.586,38.262l-.479,7.325H39.671l-.147-1.646-.334-3.714-.175-1.965Z" transform="translate(-18.47 -11.74)" fill="#fff"/></g></svg>