<svg xmlns="http://www.w3.org/2000/svg" width="51.168" height="29.699" viewBox="0 0 51.168 29.699"><g transform="translate(-1.3 -27.601)"><path d="M90.608,57.535A3.261,3.261,0,0,1,86.563,56c-2.318-3.473-4.877-6.787-7.346-10.163-.318-.437-.649-.865-1.061-1.408-2.922,3.943-5.84,7.7-8.579,11.6a3.126,3.126,0,0,1-3.836,1.51L76.727,42.8,66.5,29.484c1.759-.343,2.975-.167,4.053,1.408,2.379,3.477,5,6.787,7.62,10.289,2.632-3.49,5.224-6.8,7.673-10.248a3.051,3.051,0,0,1,3.808-1.412C88.314,31.3,87,33.043,85.686,34.778c-1.779,2.339-3.526,4.706-5.371,7a1.435,1.435,0,0,0,.037,2.118C83.763,48.377,87.135,52.907,90.608,57.535Z" transform="translate(-38.14 -1.022)"/><path d="M1.312,41.534c.294-1.473.49-2.975.9-4.42C4.659,28.368,14.7,24.731,21.6,30.151c4.041,3.179,5.045,7.661,4.845,12.713H3.667C3.324,51.93,9.85,57.4,18.168,54.611a8.626,8.626,0,0,0,5.5-6.122c.437-1.433,1.159-1.657,2.506-1.249-.69,3.575-2.253,6.563-5.518,8.432-4.9,2.8-11.889,1.894-15.566-2a14.1,14.1,0,0,1-3.5-8.2c-.061-.49-.188-.971-.286-1.457Q1.312,42.775,1.312,41.534Zm2.4-.608H24.29c-.135-6.555-4.216-11.212-9.8-11.252C8.373,29.625,3.973,34.172,3.708,40.926Z"/></g></svg>