<svg xmlns="http://www.w3.org/2000/svg" width="59.827" height="59.826" viewBox="0 0 59.827 59.826"><path d="M59.581,28.132,33.46,2.012a3.854,3.854,0,0,0-5.449,0L22.587,7.436l6.881,6.881a4.575,4.575,0,0,1,5.794,5.833l6.631,6.632a4.578,4.578,0,1,1-2.746,2.584l-6.184-6.184V39.457a4.576,4.576,0,1,1-3.769-.134V22.9a4.588,4.588,0,0,1-2.488-6.013L19.922,10.1,2.011,28.011a3.854,3.854,0,0,0,0,5.45l26.122,26.12a3.855,3.855,0,0,0,5.45,0l26-26a3.855,3.855,0,0,0,0-5.451Z" transform="translate(-0.883 -0.883)" fill="#333"/></svg>