<svg xmlns="http://www.w3.org/2000/svg" width="40.277" height="45.678" viewBox="0 0 40.277 45.678"><g transform="translate(-9.032 -1.661)"><path d="M12.7,42.773,9.032,1.661H49.309l-3.67,41.106L29.146,47.339Z" transform="translate(0)" fill="#e44d26"/><path d="M64,49.658l13.328-3.7,3.136-35.127H64Z" transform="translate(-34.83 -5.814)" fill="#f16529"/><path d="M42.133,34.8H35.46L35,29.641h7.133V24.6H29.489l.121,1.353,1.239,13.9H42.133Zm0,13.1-.022.006L36.5,46.389l-.359-4.021H31.074l.706,7.917L42.11,53.152l.023-.006Z" transform="translate(-12.962 -14.534)" fill="#ebebeb"/><path d="M63.952,34.8v5.042h6.209l-.585,6.539L63.952,47.9V53.15l10.337-2.865.076-.852L75.55,36.159l.123-1.354H63.952Zm0-10.206v5.042h12.18l.1-1.133.23-2.557.121-1.353Z" transform="translate(-34.799 -14.534)" fill="#fff"/></g></svg>