<svg xmlns="http://www.w3.org/2000/svg" width="34.667" height="47.004" viewBox="0 0 34.667 47.004"><g transform="translate(-17.969 -1.587)"><path d="M41.568,89.6s-1.8,1.045,1.279,1.4a26.9,26.9,0,0,0,9.732-.411,17.056,17.056,0,0,0,2.588,1.262C45.964,95.791,34.34,91.62,41.568,89.6Zm-1.125-5.146s-2.014,1.491,1.063,1.809a37.973,37.973,0,0,0,12.56-.6A5.552,5.552,0,0,0,56,86.841c-11.124,3.253-23.515.256-15.555-2.386Z" transform="translate(-12.434 -51.663)" fill="#0074bd"/><path d="M66.36,39.957c2.269,2.611-.595,4.959-.595,4.959s5.757-2.971,3.114-6.694c-2.47-3.47-4.363-5.194,5.888-11.139C74.766,27.084,58.675,31.1,66.36,39.957Z" transform="translate(-28.872 -15.896)" fill="#ea2d2e"/><path d="M49.658,83.829s1.329,1.1-1.464,1.943c-5.31,1.609-22.106,2.094-26.771.064-1.676-.73,1.468-1.742,2.457-1.955A6.42,6.42,0,0,1,25.5,83.7c-1.865-1.313-12.055,2.579-5.175,3.7C39.086,90.436,54.524,86.025,49.658,83.829ZM30,69.545s-8.543,2.029-3.025,2.767a64.166,64.166,0,0,0,11.3-.123c3.536-.3,7.084-.932,7.084-.932a15.083,15.083,0,0,0-2.148,1.15c-8.677,2.282-25.434,1.219-20.609-1.114A16.15,16.15,0,0,1,30,69.545ZM45.322,78.11c8.819-4.582,4.741-8.985,1.895-8.392a6.61,6.61,0,0,0-1.008.271,1.6,1.6,0,0,1,.753-.581c5.631-1.979,9.96,5.838-1.816,8.934A.8.8,0,0,0,45.322,78.11Z" transform="translate(0 -42.085)" fill="#0074bd"/><path d="M58.5,1.587s4.883,4.886-4.633,12.4c-7.631,6.027-1.74,9.463,0,13.39-4.455-4.019-7.723-7.558-5.531-10.851C51.554,11.691,60.471,9.347,58.5,1.587Z" transform="translate(-18.495)" fill="#ea2d2e"/><path d="M41.212,118.891c8.464.541,21.464-.3,21.772-4.306,0,0-.592,1.518-7,2.723a69.547,69.547,0,0,1-21.421.329S35.65,118.534,41.212,118.891Z" transform="translate(-10.348 -70.448)" fill="#0074bd"/></g></svg>