<svg xmlns="http://www.w3.org/2000/svg" width="45.185" height="45.185" viewBox="0 0 45.185 45.185"><g transform="translate(-1.408 -1.408)"><path d="M1.408,1.408H46.593V46.593H1.408Z" fill="#f0db4f"/><path d="M63.921,72.108c-.331-2.061-1.675-3.793-5.657-5.407-1.383-.636-2.925-1.091-3.385-2.139a2.332,2.332,0,0,1-.082-1.323,2.174,2.174,0,0,1,2.86-1.228A3.147,3.147,0,0,1,59.5,63.716c1.95-1.263,1.946-1.254,3.307-2.122a8.454,8.454,0,0,0-1.091-1.46c-1.173-1.31-2.771-1.984-5.326-1.933l-1.331.172a6.04,6.04,0,0,0-3.2,1.89,5.915,5.915,0,0,0,1.074,8.423c2.564,1.925,6.331,2.362,6.812,4.162.468,2.2-1.619,2.916-3.694,2.663A4.842,4.842,0,0,1,52.745,73c-1.692.979-1.692.979-3.432,1.98a7.637,7.637,0,0,0,1.538,2.092c3.273,3.32,11.464,3.157,12.933-1.868a6.215,6.215,0,0,0,.137-3.1ZM47,58.467H42.772l-.017,10.927c0,2.324.12,4.454-.258,5.107-.618,1.284-2.221,1.125-2.951.876a3.626,3.626,0,0,1-1.559-1.619,2.129,2.129,0,0,0-.241-.387l-3.436,2.1A6.79,6.79,0,0,0,36.8,78.327a8.2,8.2,0,0,0,6.039.743A5.333,5.333,0,0,0,46.25,76.4c.962-1.774.756-3.921.747-6.3C47.019,66.228,47,62.354,47,58.467Z" transform="translate(-21.026 -36.292)" fill="#323330"/></g></svg>