<svg xmlns="http://www.w3.org/2000/svg" width="44.123" height="59.826" viewBox="0 0 44.123 59.826"><g transform="translate(-17.969 -1.587)"><path d="M42.564,91s-2.285,1.33,1.628,1.778a34.241,34.241,0,0,0,12.387-.523,21.708,21.708,0,0,0,3.294,1.606C48.16,98.883,33.366,93.574,42.564,91Zm-1.432-6.549s-2.563,1.9,1.353,2.3a48.331,48.331,0,0,0,15.986-.767,7.066,7.066,0,0,0,2.46,1.5c-14.159,4.141-29.929.326-19.8-3.037Z" transform="translate(-10.385 -43.151)" fill="#333"/><path d="M66.927,43.469c2.888,3.324-.757,6.312-.757,6.312S73.5,46,70.133,41.261c-3.144-4.417-5.553-6.61,7.494-14.177,0,0-20.48,5.114-10.7,16.385Z" transform="translate(-24.115 -13.277)" fill="#8685ef"/><path d="M58.3,87.849s1.691,1.395-1.863,2.473C49.68,92.37,28.3,92.987,22.365,90.4c-2.133-.929,1.869-2.217,3.128-2.488a8.172,8.172,0,0,1,2.062-.232c-2.374-1.671-15.343,3.283-6.587,4.7C44.847,96.258,64.5,90.644,58.3,87.849ZM33.279,69.668s-10.873,2.583-3.85,3.522a81.671,81.671,0,0,0,14.384-.156c4.5-.378,9.017-1.186,9.017-1.186A19.2,19.2,0,0,0,50.1,73.311c-11.044,2.9-32.372,1.552-26.231-1.418A20.556,20.556,0,0,1,33.279,69.668Zm19.505,10.9c11.225-5.831,6.035-11.436,2.412-10.681a8.416,8.416,0,0,0-1.283.345,2.04,2.04,0,0,1,.959-.74c7.167-2.519,12.677,7.43-2.312,11.371A1.018,1.018,0,0,0,52.784,80.57Z" transform="translate(0 -35.151)" fill="#333"/><path d="M61.465,1.587s6.215,6.219-5.9,15.779c-9.713,7.671-2.215,12.044,0,17.043-5.67-5.115-9.83-9.619-7.04-13.81,4.1-6.151,15.447-9.135,12.94-19.012Z" transform="translate(-15.448)" fill="#8685ef"/><path d="M43.025,120.066c10.772.689,27.319-.383,27.71-5.481,0,0-.753,1.932-8.9,3.466a88.518,88.518,0,0,1-27.265.419s1.378,1.141,8.458,1.6Z" transform="translate(-8.643 -58.84)" fill="#333"/></g></svg>