<svg xmlns="http://www.w3.org/2000/svg" width="18.328" height="18.328" viewBox="0 0 18.328 18.328"><path d="M245.976,203.712v-.027c-.005.009-.013.018-.018.027Z" transform="translate(-236.05 -195.48)" fill="#333" fill-rule="evenodd"/><path d="M0,0V18.328H18.328V0ZM5.7,15.227H2.982V7.046H5.7Zm-1.36-9.3H4.323A1.418,1.418,0,1,1,4.359,3.1a1.418,1.418,0,1,1-.018,2.827Zm11.167,9.3h-2.72V10.85c0-1.1-.393-1.85-1.377-1.85a1.487,1.487,0,0,0-1.4.995,1.864,1.864,0,0,0-.09.663v4.569H7.2s.036-7.414,0-8.181H9.926V8.2a2.7,2.7,0,0,1,2.451-1.351c1.79,0,3.132,1.169,3.132,3.682Z" fill="#333" fill-rule="evenodd"/></svg>