<svg xmlns="http://www.w3.org/2000/svg" width="148.747" height="165.001" viewBox="0 0 148.747 165.001"><g transform="translate(-1126.001 -458)"><rect width="27.546" height="65.559" transform="translate(1200.099 576.448) rotate(-90)" fill="#333"/><rect width="27.546" height="114.591" transform="translate(1265.658 504.553) rotate(90)" fill="#333"/><g transform="translate(1126.001 548.902)" fill="none"><path d="M74.374,74.1a74.9,74.9,0,0,1-14.956-1.5,73.983,73.983,0,0,1-13.933-4.315A74.356,74.356,0,0,1,32.871,61.45a74.939,74.939,0,0,1-11-9.045A74.955,74.955,0,0,1,12.792,41.44,74.368,74.368,0,0,1,5.921,28.853,74.019,74.019,0,0,1,1.558,14.94,74.874,74.874,0,0,1,0,0H27.566c-.013.451-.02.914-.02,1.377a46.828,46.828,0,0,0,93.656,0c0-.457-.007-.921-.02-1.377h27.565a74.892,74.892,0,0,1-1.558,14.94,74.019,74.019,0,0,1-4.363,13.912,74.438,74.438,0,0,1-6.871,12.587A74.924,74.924,0,0,1,126.873,52.4a74.908,74.908,0,0,1-11,9.045,74.334,74.334,0,0,1-12.613,6.829A73.975,73.975,0,0,1,89.33,72.594,74.9,74.9,0,0,1,74.374,74.1Z" stroke="none"/><path d="M 74.37355804443359 74.09890747070313 C 69.33842468261719 74.09890747070313 64.30648803710938 73.59257507324219 59.41742324829102 72.59403991699219 C 54.65175628662109 71.62104034423828 49.96395874023438 70.16924285888672 45.48422622680664 68.27883911132813 C 41.08662414550781 66.42357635498047 36.84282302856445 64.1259765625 32.87082290649414 61.4498405456543 C 28.93935775756836 58.80110931396484 25.2396240234375 55.75777435302734 21.87442398071289 52.40444183349609 C 18.51062393188477 49.05164337158203 15.45495796203613 45.36251068115234 12.7923583984375 41.43977737426758 C 10.10382461547852 37.47877502441406 7.792024612426758 33.2439079284668 5.921157836914063 28.85270881652832 C 4.015357971191406 24.37950897216797 2.54735803604126 19.69870948791504 1.557891368865967 14.94024276733398 C 0.5424913763999939 10.05764198303223 0.01835804432630539 5.031042098999023 2.471110019541811e-05 -2.437540751998313e-05 L 27.5655574798584 -2.437540751998313e-05 C 27.55255889892578 0.4506422877311707 27.54569053649902 0.9139089584350586 27.54569053649902 1.377442240715027 C 27.54569053649902 27.1983757019043 48.55255889892578 48.2053108215332 74.37355804443359 48.2053108215332 C 100.19482421875 48.2053108215332 121.2019577026367 27.1983757019043 121.2019577026367 1.377442240715027 C 121.2019577026367 0.9202423095703125 121.1952209472656 0.456842303276062 121.1820220947266 -2.437540751998313e-05 L 148.7470855712891 -2.437540751998313e-05 C 148.728759765625 5.030708789825439 148.2044219970703 10.05710887908936 147.1892242431641 14.94024276733398 C 146.1994171142578 19.70024299621582 144.7315521240234 24.38104248046875 142.8264312744141 28.85270881652832 C 140.9551544189453 33.2439079284668 138.6433563232422 37.47877502441406 135.9552917480469 41.43977737426758 C 133.2923583984375 45.36304092407227 130.2365570068359 49.05210876464844 126.872688293457 52.40444183349609 C 123.5089569091797 55.75677490234375 119.8092269897461 58.80010986328125 115.8762893676758 61.4498405456543 C 111.9055557250977 64.12544250488281 107.6617584228516 66.42304229736328 103.2629547119141 68.27883911132813 C 98.78269195556641 70.16944122314453 94.09489440917969 71.62130737304688 89.32968902587891 72.59403991699219 C 84.44062805175781 73.59257507324219 79.40869140625 74.09890747070313 74.37355804443359 74.09890747070313 Z" stroke="none" fill="#333"/></g><g transform="translate(1126.001 458)" fill="none"><path d="M74.374,0A74.9,74.9,0,0,0,59.417,1.5,73.959,73.959,0,0,0,32.871,12.649a74.6,74.6,0,0,0-26.95,32.6A74.019,74.019,0,0,0,1.558,59.159,74.873,74.873,0,0,0,0,74.1H27.566c-.013-.451-.02-.914-.02-1.377a46.828,46.828,0,0,1,93.656,0c0,.457-.007.921-.02,1.377h27.565a74.893,74.893,0,0,0-1.558-14.94,73.969,73.969,0,0,0-11.234-26.5A74.6,74.6,0,0,0,103.263,5.82,73.975,73.975,0,0,0,89.33,1.5,74.9,74.9,0,0,0,74.374,0Z" stroke="none"/><path d="M 74.37355041503906 -2.288818359375e-05 C 79.40868377685547 -2.288818359375e-05 84.44062042236328 0.5063095092773438 89.32968139648438 1.504844665527344 C 94.09481811523438 2.477577209472656 98.78268432617188 3.929443359375 103.2628784179688 5.820045471191406 C 107.661750793457 7.675849914550781 111.9055480957031 9.97344970703125 115.876220703125 12.6490478515625 C 119.8092193603516 15.29877853393555 123.5089492797852 18.34204483032227 126.8726806640625 21.6944465637207 C 130.2364807128906 25.04677963256836 133.2922821044922 28.73584747314453 135.9552917480469 32.65911102294922 C 138.6432800292969 36.62011337280273 140.9551544189453 40.85498046875 142.826416015625 45.24617767333984 C 144.7315521240234 49.71784591674805 146.1994171142578 54.39864349365234 147.1892242431641 59.15864562988281 C 148.2044219970703 64.04177856445313 148.7287445068359 69.06817626953125 148.7470855712891 74.09891510009766 L 121.182014465332 74.09891510009766 C 121.1952209472656 73.64204406738281 121.2019500732422 73.17864990234375 121.2019500732422 72.72144317626953 C 121.2019500732422 46.9005126953125 100.1948165893555 25.89357757568359 74.37355041503906 25.89357757568359 C 48.55255126953125 25.89357757568359 27.54568481445313 46.9005126953125 27.54568481445313 72.72144317626953 C 27.54568481445313 73.18498229980469 27.55255126953125 73.64824676513672 27.5655517578125 74.09891510009766 L 1.52587890625e-05 74.09891510009766 C 0.0183563232421875 69.06784820556641 0.54248046875 64.04124450683594 1.557876586914063 59.15864562988281 C 2.547348022460938 54.40017700195313 4.015350341796875 49.71937942504883 5.921157836914063 45.24617767333984 C 7.792022705078125 40.85498046875 10.10382080078125 36.62011337280273 12.79234313964844 32.65911102294922 C 15.45501708984375 28.73637771606445 18.5106201171875 25.04724502563477 21.87442016601563 21.6944465637207 C 25.23961639404297 18.34111404418945 28.93935394287109 15.29777908325195 32.87081909179688 12.6490478515625 C 36.84281921386719 9.972915649414063 41.08661651611328 7.675315856933594 45.48421478271484 5.820045471191406 C 49.96395111083984 3.929649353027344 54.65174865722656 2.477783203125 59.41741943359375 1.504844665527344 C 64.30648040771484 0.5063095092773438 69.33841705322266 -2.288818359375e-05 74.37355041503906 -2.288818359375e-05 Z" stroke="none" fill="#333"/></g></g></svg>