<svg xmlns="http://www.w3.org/2000/svg" width="24.95" height="55.517" viewBox="0 0 24.95 55.517"><g transform="translate(-36.592 -3.012)"><path d="M75.5,42.812a26.019,26.019,0,0,1,1.43,6.507,28.616,28.616,0,0,1-.468,8.257,1.9,1.9,0,0,1-.075.218,3.69,3.69,0,0,0-.55.005c-1.515.238-3.029.485-4.543.73-1.565.254-3.132.5-4.694.768-.553.1-1.238-.019-1.462.747-.006.021-.07.025-.107.036l.076-4.575q-.039-5.519-.077-11.038l.729-.125c1.193-.2,2.385-.393,3.578-.583q2.136-.339,4.275-.667C74.245,43,74.874,42.906,75.5,42.812Z" transform="translate(-15.497 -21.685)" fill="#439934" fill-rule="evenodd"/><path d="M48.033,72.466c-.769-.661-1.565-1.294-2.3-1.989a28.485,28.485,0,0,1-8.3-13.457,21.776,21.776,0,0,1-.741-4.457,25.171,25.171,0,0,1-.07-3.175,37.3,37.3,0,0,1,1.423-8.26l.045-.063a1.329,1.329,0,0,1,.235.32q1.2,3.537,2.386,7.078,3.726,11.128,7.454,22.257a1.773,1.773,0,0,0,.265.394l-.4,1.351Z" transform="translate(0 -20.734)" fill="#45a538" fill-rule="evenodd"/><path d="M74.941,21.839c-.63.094-1.26.183-1.888.28q-2.138.331-4.275.667c-1.193.19-2.386.388-3.578.583l-.729.125-.005-.476c-.024-.391-.066-.781-.07-1.172-.031-2.493-.051-4.987-.082-7.48q-.029-2.341-.08-4.681c-.02-.969-.041-1.939-.084-2.908-.024-.52-.107-1.038-.142-1.558-.019-.3.007-.6.013-.9.372.721.736,1.446,1.118,2.162a13.82,13.82,0,0,0,2.432,2.872,32.037,32.037,0,0,1,7.37,12.486Z" transform="translate(-14.934 -0.712)" fill="#46a037" fill-rule="evenodd"/><path d="M64.643,78.005c.037-.012.1-.015.107-.036.223-.766.908-.651,1.462-.747,1.562-.27,3.129-.514,4.694-.768,1.514-.245,3.028-.492,4.543-.73a3.629,3.629,0,0,1,.55-.005c-.283,1.01-.506,2.043-.865,3.025a33.756,33.756,0,0,1-1.425,3.269,22.367,22.367,0,0,1-2.892,4.444,40.949,40.949,0,0,1-2.823,2.98c-.539.53-1.175.962-1.767,1.439l-.153-.1-.553-.472-.572-1.253a18.844,18.844,0,0,1-.634-4.478l.01-.255.078-1.1c.026-.377.061-.753.076-1.131.059-1.357.11-2.715.163-4.072Z" transform="translate(-15.105 -39.609)" fill="#409433" fill-rule="evenodd"/><path d="M53.114,49.408c-.054,1.357-.1,2.715-.162,4.072-.016.378-.051.754-.076,1.131l-.348.132c-.773-2.277-1.547-4.529-2.3-6.788-1.252-3.736-2.488-7.479-3.738-11.216q-1.514-4.525-3.05-9.043a1.534,1.534,0,0,0-.281-.376l2.228-4.1a2.39,2.39,0,0,1,.226.4q1.546,4.576,3.08,9.157,1.991,5.96,3.973,11.924a4.8,4.8,0,0,0,.223.483l.3-.355q-.038,2.288-.076,4.575Z" transform="translate(-3.575 -11.012)" fill="#4faa41" fill-rule="evenodd"/><path d="M41.372,32.227a1.546,1.546,0,0,1,.281.376q1.535,4.518,3.05,9.043c1.25,3.737,2.486,7.48,3.738,11.216.756,2.258,1.53,4.511,2.3,6.788l.348-.132-.078,1.1-.071.254c-.121,1.209-.223,2.421-.37,3.627-.074.6-.232,1.2-.351,1.8a1.789,1.789,0,0,1-.265-.394Q46.225,54.779,42.5,43.648q-1.186-3.541-2.386-7.078a1.318,1.318,0,0,0-.235-.32l1.489-4.024Z" transform="translate(-1.793 -15.918)" fill="#4aa73c" fill-rule="evenodd"/><path d="M55.856,40.495l-.3.355a4.851,4.851,0,0,1-.223-.483q-1.989-5.961-3.973-11.924-1.531-4.582-3.08-9.157a2.311,2.311,0,0,0-.226-.4L50.8,15.26a1.485,1.485,0,0,1,.256.35q1.148,3.36,2.277,6.726c.7,2.1,1.4,4.194,2.11,6.287.048.14.214.239.325.358l.005.476Q55.818,34.975,55.856,40.495Z" transform="translate(-6.242 -6.673)" fill="#57ae47" fill-rule="evenodd"/><path d="M59.074,22.307c-.111-.118-.277-.218-.325-.358-.712-2.093-1.406-4.192-2.11-6.287Q55.508,12.3,54.362,8.936a1.485,1.485,0,0,0-.256-.35c.9-.878,1.765-1.786,2.7-2.624a3.736,3.736,0,0,0,1.526-2.716,1.443,1.443,0,0,1,.066-.234l.236.594c-.006.3-.033.6-.013.9.034.52.118,1.038.142,1.558.044.968.065,1.938.084,2.908q.047,2.34.08,4.681c.03,2.493.051,4.987.082,7.48,0,.392.045.782.069,1.173Z" transform="translate(-9.542)" fill="#60b24f" fill-rule="evenodd"/><path d="M62.124,100.588c.12-.6.277-1.192.351-1.8.148-1.206.249-2.418.37-3.627l.03,0,.03.005a18.844,18.844,0,0,0,.634,4.478,1.37,1.37,0,0,0-.236.319c-.331.933-.643,1.873-.975,2.806a1.392,1.392,0,0,1-.261.339l-.34-1.168.4-1.351Z" transform="translate(-13.695 -50.207)" fill="#a9aa88" fill-rule="evenodd"/><path d="M62.476,108.474a1.38,1.38,0,0,0,.261-.339c.333-.933.645-1.873.975-2.806a1.357,1.357,0,0,1,.236-.319l.571,1.253a2.225,2.225,0,0,0-.331.483l-1.094,3.213c-.045.129-.2.22-.3.329l-.316-1.814Z" transform="translate(-14.103 -55.573)" fill="#b6b598" fill-rule="evenodd"/><path d="M63.171,111.787c.1-.108.257-.2.3-.329l1.094-3.213a2.221,2.221,0,0,1,.331-.483l.553.472a.971.971,0,0,0-.326.954l-.168.55a1.133,1.133,0,0,0-.225.284c-.382,1.094-.746,2.193-1.131,3.287a1.513,1.513,0,0,1-.279.37q-.074-.947-.151-1.893Z" transform="translate(-14.481 -57.073)" fill="#c2c1a7" fill-rule="evenodd"/><path d="M63.5,116.046a1.554,1.554,0,0,0,.279-.37c.385-1.093.749-2.193,1.131-3.287a1.131,1.131,0,0,1,.225-.284l-.232,2.524c-.062.071-.152.134-.181.217-.262.735-.508,1.475-.771,2.209a2.823,2.823,0,0,1-.239.427c-.072-.094-.2-.185-.207-.284-.023-.383-.007-.768-.006-1.153Z" transform="translate(-14.654 -59.439)" fill="#cecdb7" fill-rule="evenodd"/><path d="M63.969,120.5a2.867,2.867,0,0,0,.239-.427c.263-.734.509-1.474.771-2.209.03-.083.12-.145.181-.217l.005,1.657-.554,1.422Z" transform="translate(-14.916 -62.46)" fill="#dbdac7" fill-rule="evenodd"/><path d="M65.38,122.713l.554-1.422.114,1.682Z" transform="translate(-15.685 -64.444)" fill="#ebe9dc" fill-rule="evenodd"/><path d="M67.433,109.755a.97.97,0,0,1,.326-.954l.153.1Z" transform="translate(-16.789 -57.639)" fill="#cecdb7" fill-rule="evenodd"/><path d="M64.244,94.867l-.03-.005-.03,0,.071-.254Z" transform="translate(-15.033 -49.908)" fill="#4faa41" fill-rule="evenodd"/></g></svg>