<svg xmlns="http://www.w3.org/2000/svg" width="45.086" height="44.234" viewBox="0 0 45.086 44.234"><path d="M42.621,36.522a14.075,14.075,0,0,0-5.944.839c-.456.192-1.185.2-1.259.769.251.263.29.656.489.979A7.721,7.721,0,0,0,37.515,41c.631.477,1.282.986,1.959,1.4,1.2.734,2.547,1.153,3.706,1.888.683.434,1.362.98,2.028,1.468.33.242.551.618.979.769v-.07c-.225-.287-.283-.68-.49-.98l-.909-.909a14.909,14.909,0,0,0-3.217-3.077c-.957-.687-3.1-1.614-3.5-2.727L38,38.69a15.366,15.366,0,0,0,2.1-.49c1.052-.282,1.991-.209,3.077-.489l1.468-.42v-.28c-.549-.563-.94-1.309-1.538-1.818a44.982,44.982,0,0,0-5.035-3.776c-.976-.616-2.182-1.016-3.217-1.538-.348-.176-.959-.267-1.189-.56a14.759,14.759,0,0,1-1.258-2.377c-.878-1.691-1.74-3.537-2.517-5.315a28.593,28.593,0,0,0-1.539-3.5A30.883,30.883,0,0,0,16.467,6.661,14.274,14.274,0,0,0,12.55,5.4l-2.307-.14a12.121,12.121,0,0,1-1.4-1.049C7.09,3.1,2.59.694,1.291,3.863c-.82,2,1.226,3.951,1.958,4.965a14.958,14.958,0,0,1,1.539,2.307c.242.526.283,1.053.49,1.609A36.859,36.859,0,0,0,6.886,16.87,14.542,14.542,0,0,0,8,18.758c.257.352.7.506.769,1.049a8.555,8.555,0,0,0-.7,2.308c-1.093,3.446-.681,7.73.909,10.28.487.783,1.637,2.463,3.217,1.818,1.382-.563,1.073-2.307,1.469-3.846.089-.349.034-.605.21-.839v.07l1.259,2.517a17.128,17.128,0,0,0,3.986,4.127c.726.549,1.3,1.5,2.238,1.818v-.07h-.07c-.182-.283-.467-.4-.7-.629a16,16,0,0,1-1.608-1.818,42.555,42.555,0,0,1-3.427-5.594c-.49-.942-.916-1.979-1.329-2.937-.159-.369-.157-.928-.489-1.119a13.951,13.951,0,0,0-1.469,2.1,17.977,17.977,0,0,0-.839,4.615c-.123.044-.068.014-.14.07-.974-.235-1.316-1.237-1.678-2.1a13.221,13.221,0,0,1-.28-8.182c.209-.648,1.15-2.688.769-3.287-.182-.6-.783-.943-1.119-1.4a11.031,11.031,0,0,1-1.12-1.958c-.749-1.7-1.1-3.6-1.888-5.314A15.538,15.538,0,0,0,4.438,8.059,13.917,13.917,0,0,1,2.76,5.681c-.16-.347-.377-.9-.14-1.259A.555.555,0,0,1,3.039,4c.406-.313,1.535.1,1.958.279A17.059,17.059,0,0,1,8,5.821c.456.3.917.887,1.468,1.049H10.1c.985.226,2.087.07,3.007.349a18.171,18.171,0,0,1,4.405,2.1A27.277,27.277,0,0,1,27.1,19.807c.363.7.52,1.36.839,2.1.644,1.488,1.456,3.02,2.1,4.476A20.9,20.9,0,0,0,32.2,30.507c.476.635,2.312.976,3.147,1.329a18.546,18.546,0,0,1,2.1.839c1.058.639,2.084,1.4,3.077,2.1.5.349,2.021,1.117,2.1,1.749ZM11.361,9.878a5,5,0,0,0-1.259.139v.07h.07a9.631,9.631,0,0,0,.979,1.259l.7,1.468.07-.069a1.707,1.707,0,0,0,.629-1.539c-.173-.182-.2-.411-.349-.629C12,10.287,11.613,10.122,11.361,9.878Z" transform="translate(-1.101 -2.288)" fill="#00618a"/></svg>