<svg xmlns="http://www.w3.org/2000/svg" width="39.662" height="44.821" viewBox="0 0 39.662 44.821"><path d="M48.094,13.472,31.749,3.981a3.525,3.525,0,0,0-3.412,0l-16.52,9.491A3.551,3.551,0,0,0,10,16.465V35.422a3.581,3.581,0,0,0,1.836,3L16.2,40.9a7,7,0,0,0,3.773,1.028c3.089,0,4.853-1.868,4.853-5.126V18.084c0-.264-.138-.658-.4-.658H22.346c-.264,0-.855.393-.855.657V36.8c0,1.444-1.306,2.881-3.748,1.661l-4.51-2.6a.512.512,0,0,1-.268-.438V16.465c0-.179.206-.358.364-.45L29.8,6.54a.577.577,0,0,1,.533,0L46.6,16.013c.156.094.1.268.1.452V35.422c0,.181.068.357-.086.444l-16.342,9.48a.464.464,0,0,1-.467,0l-4.191-2.5a.4.4,0,0,0-.4-.032,10.909,10.909,0,0,1-2.475,1.128c-.269.094-.666.257.152.715L28.375,47.9a3.457,3.457,0,0,0,3.452,0l16.267-9.483a3.34,3.34,0,0,0,1.568-3V16.465A3.329,3.329,0,0,0,48.094,13.472ZM35.172,32.418c-4.347,0-5.3-1.2-5.623-3.361-.037-.233-.235-.511-.471-.511H26.953c-.263,0-.474.319-.474.58,0,2.767,1.5,6.121,8.693,6.121,5.2,0,8.187-2.022,8.187-5.6,0-3.548-2.4-4.479-7.444-5.147-5.1-.674-5.619-1.015-5.619-2.21,0-.985.439-2.3,4.216-2.3,3.375,0,4.619.724,5.131,3a.468.468,0,0,0,.46.367h2.133a.488.488,0,0,0,.348-.147.48.48,0,0,0,.124-.363c-.33-3.917-2.933-5.743-8.2-5.743-4.682,0-7.475,1.977-7.475,5.291,0,3.595,2.779,4.588,7.273,5.033,5.377.527,5.795,1.313,5.795,2.37,0,1.837-1.475,2.619-4.933,2.619Z" transform="translate(-10 -3.541)" fill="#83cd29"/></svg>