<svg xmlns="http://www.w3.org/2000/svg" width="87.537" height="65.469" viewBox="0 0 87.537 65.469"><path d="M1.219,44.3a3.861,3.861,0,0,0,.225,1.128,13.864,13.864,0,0,0,3,5.4,35.606,35.606,0,0,0,6.661,5.845c2.083,1.5,4.209,2.962,6.3,4.448.359.255.7.549,1.088.862-.335.181-.614.341-.9.488a48.4,48.4,0,0,0-7.864,4.871A16.084,16.084,0,0,0,5.821,71.3a8.509,8.509,0,0,0-.987,8.2,4.84,4.84,0,0,0,1.65,2.129,2.44,2.44,0,0,0,.81.418c.738.174,1.489.287,2.236.425h2.115a13.156,13.156,0,0,0,6.391-2.337,14.023,14.023,0,0,0,5.9-8.427,14.875,14.875,0,0,0-.087-7.776c-.069-.24-.156-.475-.247-.707s-.2-.458-.323-.747l4.794-2.757.072.061c-.087.285-.18.57-.259.858a19.415,19.415,0,0,0-.812,6.356,12.2,12.2,0,0,0,2.134,6.377,3.092,3.092,0,0,0,4.841.052,11.165,11.165,0,0,0,1.108-1.752c.782-1.614,1.505-3.257,2.252-4.888l.13-.3c-.054.773-.116,1.451-.145,2.13a8.118,8.118,0,0,0,.38,3.123A2.157,2.157,0,0,0,39.6,73.357a2.3,2.3,0,0,0,1.712-.625,7.24,7.24,0,0,0,1.876-2.23c1.325-2.434,2.686-4.853,3.888-7.349,1.3-2.7,2.436-5.477,3.643-8.221l.2-.487c.285,1.12.484,2.218.85,3.257A30.779,30.779,0,0,0,53.3,61.229a1.055,1.055,0,0,1-.136,1.344c-1.573,1.9-3.119,3.816-4.666,5.733a12.879,12.879,0,0,0-.968,1.316,2.58,2.58,0,0,0-.335.951,1.211,1.211,0,0,0,.964,1.374,6.736,6.736,0,0,0,1.888.135,11.059,11.059,0,0,0,5.853-2.2,6.136,6.136,0,0,0,2.423-6.624,15.389,15.389,0,0,0-.66-2.143.792.792,0,0,1,.086-.835A68.222,68.222,0,0,0,62.5,52.212a1.662,1.662,0,0,1,.213-.336,20.945,20.945,0,0,0,2.4,6.827c-.636.613-1.265,1.169-1.835,1.781a12.276,12.276,0,0,0-2.909,4.6,5.432,5.432,0,0,0-.323,2.374,2,2,0,0,0,2.47,1.816,11.226,11.226,0,0,0,6.7-4.131,5.431,5.431,0,0,0,.767-4.959c-.131-.48-.287-.952-.454-1.5.663-.206,1.309-.452,1.978-.605a17.532,17.532,0,0,1,10.25.6,7.736,7.736,0,0,1,4.466,3.884,4.48,4.48,0,0,1-1.71,6.08,3.809,3.809,0,0,0-.616.422.606.606,0,0,0-.143.467c.015.086.241.193.372.192a3.4,3.4,0,0,0,1.89-.782,5.821,5.821,0,0,0,2.686-4.056l.044-.131L88.7,63.615c-.022-.066.016-.13.011-.18a8.912,8.912,0,0,0-3.635-6.057,13.258,13.258,0,0,0-7.843-2.641,17.71,17.71,0,0,0-6.808,1.048c-.625.227-1.245.5-1.874.748-.084-.153-.175-.3-.25-.45a12.742,12.742,0,0,1-1.6-4.1,9.18,9.18,0,0,1-.017-3.216c.246-1.024.567-2.031.869-3.041a.741.741,0,0,0-.45-1.046,1.99,1.99,0,0,0-.548-.18,8.44,8.44,0,0,0-3.605.268,1.033,1.033,0,0,0-.815.819c-.053.266-.161.52-.236.782a19.565,19.565,0,0,1-1.027,3.239c-1.251,2.6-2.679,5.11-4.14,7.6-.158.268-.325.532-.524.858a11.239,11.239,0,0,1-1.226-3.167,9.719,9.719,0,0,1-.017-3.82c.236-.945.545-1.873.83-2.806a.65.65,0,0,0-.329-.91A1.935,1.935,0,0,0,54.8,47.1a8.118,8.118,0,0,0-3.733.305,1.008,1.008,0,0,0-.693.758,29.227,29.227,0,0,1-1.108,3.427c-1.934,4.434-3.924,8.845-5.912,13.256-.415.921-.9,1.81-1.369,2.707a6.285,6.285,0,0,1-.439.641.523.523,0,0,1-.164-.333,9.18,9.18,0,0,1,.044-1.7c.327-1.658.7-3.307,1.1-4.949.328-1.357.709-2.7,1.072-4.049a1.271,1.271,0,0,0-.2-1.252,1.872,1.872,0,0,0-2.357-.285l-.3.169.058-.481a7.494,7.494,0,0,0-.112-3.075,2.447,2.447,0,0,0-2.57-1.954,5.52,5.52,0,0,0-1.822.347,13.777,13.777,0,0,0-5.777,4.579,1.807,1.807,0,0,1-.528.456c-2.017,1.118-4.04,2.223-6.063,3.331l-2.251,1.233c-.6-.576-1.152-1.173-1.775-1.68-1.9-1.551-3.833-3.063-5.748-4.6a22.655,22.655,0,0,1-4.6-4.574,8.187,8.187,0,0,1-1.6-4.459,10.465,10.465,0,0,1,1.6-5.83,22.365,22.365,0,0,1,5.306-5.806,49.16,49.16,0,0,1,6.978-4.629,52.634,52.634,0,0,1,10.7-4.723,29.577,29.577,0,0,1,11.828-1.345,12.153,12.153,0,0,1,4.551,1.321,4.7,4.7,0,0,1,2.39,2.591,6.478,6.478,0,0,1,.113,3.628,13.85,13.85,0,0,1-3.622,6.31A24.478,24.478,0,0,1,37.8,42.781a27.524,27.524,0,0,1-6.808,1.452,12.821,12.821,0,0,1-5.567-.671,7.242,7.242,0,0,1-3.067-2.083c-.149-.174-.34-.363-.618-.2a.528.528,0,0,0-.229.683,6.686,6.686,0,0,0,.531,1.281,7.3,7.3,0,0,0,2.428,2.3A11.881,11.881,0,0,0,30.509,47.2a30.374,30.374,0,0,0,9.52-1.213A23.355,23.355,0,0,0,51.451,39.1a17.546,17.546,0,0,0,4.825-10.053,9.731,9.731,0,0,0-.909-5.539A10.012,10.012,0,0,0,51,19.234,18.492,18.492,0,0,0,42.4,17h-3a31.1,31.1,0,0,0-10.558,2.283,72.525,72.525,0,0,0-7.577,3.279A48.988,48.988,0,0,0,6.818,32.9a21.569,21.569,0,0,0-4.764,7.523c-.291.841-.567,1.742-.775,2.612m19.41,25.109a11.082,11.082,0,0,1-3.944,7.671,8.972,8.972,0,0,1-4.512,2.252,3.311,3.311,0,0,1-1.878-.131,1.917,1.917,0,0,1-1.079-1.962,7.1,7.1,0,0,1,1.06-3.616,12.924,12.924,0,0,1,3.305-3.63A50.657,50.657,0,0,1,20.1,64.377l.169-.07a11.341,11.341,0,0,1,.416,3.84ZM38.23,54.635a23.456,23.456,0,0,1-.659,2.949,86.923,86.923,0,0,1-3.683,9.742,16.805,16.805,0,0,1-.957,1.685,1.177,1.177,0,0,1-.2.233c-.4.4-.785.377-.989-.144a10.978,10.978,0,0,1-.508-1.894,10.034,10.034,0,0,1-.091-1.323,16.577,16.577,0,0,1,2.6-8.631,8.07,8.07,0,0,1,2.509-2.826,4.371,4.371,0,0,1,1.112-.492c.593-.167.957.107.858.7ZM50.2,69.882l4.3-5.022C54.677,66.725,51.507,70.448,50.2,69.882ZM63.934,66.5c-.3.174-.635.3-.947.461-.285.148-.379,0-.388-.247a1.663,1.663,0,0,1,.065-.5,10.812,10.812,0,0,1,3.24-5.219l.112-.057A4.608,4.608,0,0,1,63.934,66.5Z" transform="translate(-1.219 -17)" fill="#333" fill-rule="evenodd"/></svg>